<svg width="45" height="121" viewBox="0 0 45 121" fill="none" xmlns="http://www.w3.org/2000/svg">
<path d="M25.3605 90.4343C17.1824 90.4343 10.5293 97.0875 10.5293 105.265C11.2748 124.914 39.4491 124.909 40.1916 105.265C40.1916 97.0875 33.5383 90.4343 25.3605 90.4343Z" fill="url(#paint0_linear_388_1599)"/>
<path d="M40.1852 6.84883C32.8255 -2.28079 17.9012 -2.28525 10.5384 6.8493C6.85149 11.2386 5.3036 16.9932 6.2918 22.6375C9.23855 39.4739 13.3971 63.2364 15.2635 73.9082C17.3546 85.1414 33.3699 85.1379 35.4585 73.9087L44.4321 22.6375C45.4203 16.9934 43.8724 11.2386 40.1852 6.84883Z" fill="url(#paint1_linear_388_1599)"/>
<path d="M19.3605 91.4343C11.1824 91.4343 4.5293 98.0875 4.5293 106.265C5.27484 125.914 33.4491 125.909 34.1916 106.265C34.1916 98.0875 27.5383 91.4343 19.3605 91.4343Z" fill="url(#paint2_linear_388_1599)"/>
<path d="M34.1852 7.84883C26.8255 -1.28079 11.9012 -1.28525 4.53839 7.8493C0.851485 12.2386 -0.696399 17.9932 0.291798 23.6375C3.23855 40.4739 7.39715 64.2364 9.26348 74.9082C11.3546 86.1414 27.3699 86.1379 29.4585 74.9087L38.4321 23.6375C39.4203 17.9934 37.8724 12.2386 34.1852 7.84883Z" fill="url(#paint3_linear_388_1599)"/>
<defs>
<linearGradient id="paint0_linear_388_1599" x1="25.3605" y1="90.4343" x2="25.3605" y2="120" gradientUnits="userSpaceOnUse">
<stop stop-color="#0D50FE"/>
<stop offset="1" stop-color="#0037C5"/>
</linearGradient>
<linearGradient id="paint1_linear_388_1599" x1="25.3619" y1="0" x2="25.3619" y2="82.3319" gradientUnits="userSpaceOnUse">
<stop stop-color="#0D50FE"/>
<stop offset="1" stop-color="#0037C5"/>
</linearGradient>
<linearGradient id="paint2_linear_388_1599" x1="19.3605" y1="91.4343" x2="19.3605" y2="121" gradientUnits="userSpaceOnUse">
<stop stop-color="#3D73FF"/>
<stop offset="1" stop-color="#2C53B9"/>
</linearGradient>
<linearGradient id="paint3_linear_388_1599" x1="19.3619" y1="1" x2="19.3619" y2="83.3319" gradientUnits="userSpaceOnUse">
<stop stop-color="#3D73FF"/>
<stop offset="1" stop-color="#2C53B9"/>
</linearGradient>
</defs>
</svg>
