<svg width="45" height="30" viewBox="0 0 45 30" fill="none" xmlns="http://www.w3.org/2000/svg">
<g id="payment-methods/light/mastercard" clip-path="url(#clip0_388_1927)">
<path id="Rectangle 1" d="M0 3.75C0 1.67893 1.67893 0 3.75 0H41.25C43.3211 0 45 1.67893 45 3.75V26.25C45 28.3211 43.3211 30 41.25 30H3.75C1.67893 30 0 28.3211 0 26.25V3.75Z" fill="#FDFDFD"/>
<g id="g13">
<g id="XMLID_328_">
<path id="rect19" d="M27.1948 6.11951L17.5115 6.15283L17.805 23.8808L27.4884 23.8475L27.1948 6.11951Z" fill="#FF5F00"/>
<path id="XMLID_330_" d="M18.1489 15.0526C18.0889 11.4469 19.7041 8.24306 22.2341 6.1649C20.3244 4.66636 17.9303 3.76524 15.3351 3.77414C9.18677 3.79521 4.29645 8.86026 4.40018 15.0997C4.50391 21.3392 9.56207 26.3701 15.7104 26.3491C18.3056 26.3402 20.6695 25.4228 22.5291 23.9113C19.9309 21.8821 18.2088 18.6583 18.1489 15.0526Z" fill="#EB001B"/>
<path id="path22" d="M40.5997 14.9006C40.7035 21.1401 35.8132 26.2052 29.6649 26.2262C27.0696 26.2351 24.6755 25.334 22.7658 23.8355C25.3267 21.7572 26.911 18.5535 26.8511 14.9478C26.7911 11.342 25.0696 8.14965 22.4708 6.08907C24.3304 4.57762 26.6943 3.66019 29.2896 3.6513C35.4378 3.63023 40.4965 8.69254 40.5997 14.9006Z" fill="#F79E1B"/>
</g>
</g>
</g>
<defs>
<clipPath id="clip0_388_1927">
<rect width="45" height="30" fill="white"/>
</clipPath>
</defs>
</svg>
