<svg xmlns="http://www.w3.org/2000/svg" width="16" height="13" viewBox="0 0 16 13" fill="none">
    <path d="M12.3629 7.5H1.21289C0.929557 7.5 0.692057 7.40416 0.500391 7.2125C0.308724 7.02083 0.212891 6.78333 0.212891 6.5C0.212891 6.21666 0.308724 5.97916 0.500391 5.7875C0.692057 5.59583 0.929557 5.5 1.21289 5.5H12.3629L9.51289 2.65C9.31289 2.45 9.21706 2.21666 9.22539 1.95C9.23372 1.68333 9.32956 1.45 9.51289 1.25C9.71289 1.05 9.95039 0.94583 10.2254 0.937496C10.5004 0.929163 10.7379 1.025 10.9379 1.225L15.5129 5.8C15.6129 5.9 15.6837 6.00833 15.7254 6.125C15.7671 6.24166 15.7879 6.36666 15.7879 6.5C15.7879 6.63333 15.7671 6.75833 15.7254 6.875C15.6837 6.99166 15.6129 7.1 15.5129 7.2L10.9379 11.775C10.7379 11.975 10.5004 12.0708 10.2254 12.0625C9.95039 12.0542 9.71289 11.95 9.51289 11.75C9.32956 11.55 9.23372 11.3167 9.22539 11.05C9.21706 10.7833 9.31289 10.55 9.51289 10.35L12.3629 7.5Z" fill="#3D73FF"/>
</svg>