<svg width="23" height="22" viewBox="0 0 23 22" fill="none" xmlns="http://www.w3.org/2000/svg">
<g id="arrow_right_alt">
<mask id="mask0_284_9150" style="mask-type:alpha" maskUnits="userSpaceOnUse" x="0" y="0" width="23" height="22">
<rect id="Bounding box" x="0.0546875" y="22" width="22" height="22" transform="rotate(-90 0.0546875 22)" fill="#D9D9D9"/>
</mask>
<g mask="url(#mask0_284_9150)">
<path id="arrow_right_alt_2" d="M11.9712 7.19584V17.4167C11.9712 17.6764 11.8833 17.8941 11.7076 18.0698C11.5319 18.2455 11.3142 18.3333 11.0545 18.3333C10.7948 18.3333 10.5771 18.2455 10.4014 18.0698C10.2257 17.8941 10.1378 17.6764 10.1378 17.4167V7.19584L7.52533 9.80834C7.34199 9.99167 7.12811 10.0795 6.88366 10.0719C6.63922 10.0642 6.42533 9.97639 6.24199 9.80834C6.05866 9.625 5.96318 9.4073 5.95554 9.15521C5.9479 8.90313 6.03574 8.68542 6.21908 8.50209L10.4128 4.30834C10.5045 4.21667 10.6038 4.15174 10.7107 4.11355C10.8177 4.07535 10.9323 4.05625 11.0545 4.05625C11.1767 4.05625 11.2913 4.07535 11.3982 4.11355C11.5052 4.15174 11.6045 4.21667 11.6962 4.30834L15.8899 8.50209C16.0732 8.68542 16.1611 8.90313 16.1535 9.15521C16.1458 9.4073 16.0503 9.625 15.867 9.80834C15.6837 9.97639 15.4698 10.0642 15.2253 10.0719C14.9809 10.0795 14.767 9.99167 14.5837 9.80834L11.9712 7.19584Z" fill="#5AED69"/>
</g>
</g>
</svg>
