<svg width="23" height="22" viewBox="0 0 23 22" fill="none" xmlns="http://www.w3.org/2000/svg">
<g id="arrow_right_alt">
<mask id="mask0_284_9108" style="mask-type:alpha" maskUnits="userSpaceOnUse" x="0" y="0" width="23" height="22">
<rect id="Bounding box" width="22" height="22" transform="matrix(0 1 1 0 0.554688 0)" fill="#D9D9D9"/>
</mask>
<g mask="url(#mask0_284_9108)">
<path id="arrow_right_alt_2" d="M12.4712 14.8042V4.58332C12.4712 4.3236 12.3833 4.10589 12.2076 3.9302C12.0319 3.7545 11.8142 3.66666 11.5545 3.66666C11.2948 3.66666 11.0771 3.7545 10.9014 3.9302C10.7257 4.10589 10.6378 4.3236 10.6378 4.58332V14.8042L8.02533 12.1917C7.84199 12.0083 7.62811 11.9205 7.38366 11.9281C7.13922 11.9358 6.92533 12.0236 6.74199 12.1917C6.55866 12.375 6.46318 12.5927 6.45554 12.8448C6.4479 13.0969 6.53574 13.3146 6.71908 13.4979L10.9128 17.6917C11.0045 17.7833 11.1038 17.8483 11.2107 17.8864C11.3177 17.9246 11.4323 17.9437 11.5545 17.9437C11.6767 17.9437 11.7913 17.9246 11.8982 17.8864C12.0052 17.8483 12.1045 17.7833 12.1962 17.6917L16.3899 13.4979C16.5732 13.3146 16.6611 13.0969 16.6535 12.8448C16.6458 12.5927 16.5503 12.375 16.367 12.1917C16.1837 12.0236 15.9698 11.9358 15.7253 11.9281C15.4809 11.9205 15.267 12.0083 15.0837 12.1917L12.4712 14.8042Z" fill="#E33351"/>
</g>
</g>
</svg>
