<svg width="16" height="17" viewBox="0 0 16 17" fill="none" xmlns="http://www.w3.org/2000/svg">
<g id="arrow_forward_ios">
<mask id="mask0_284_6076" style="mask-type:alpha" maskUnits="userSpaceOnUse" x="0" y="0" width="16" height="17">
<rect id="Bounding box" y="16.5" width="16" height="16" transform="rotate(-90 0 16.5)" fill="#D9D9D9"/>
</mask>
<g mask="url(#mask0_284_6076)">
<path id="arrow_forward_ios_2" d="M8.00033 6.85001L3.10033 11.75C2.93366 11.9167 2.73644 11.9972 2.50866 11.9917C2.28088 11.9861 2.08366 11.9 1.91699 11.7333C1.75033 11.5667 1.66699 11.3695 1.66699 11.1417C1.66699 10.9139 1.75033 10.7167 1.91699 10.55L7.05033 5.43334C7.18366 5.30001 7.33366 5.20001 7.50033 5.13334C7.66699 5.06667 7.83366 5.03334 8.00033 5.03334C8.16699 5.03334 8.33366 5.06667 8.50033 5.13334C8.66699 5.20001 8.81699 5.30001 8.95033 5.43334L14.0837 10.5667C14.2503 10.7333 14.3309 10.9278 14.3253 11.15C14.3198 11.3722 14.2337 11.5667 14.067 11.7333C13.9003 11.9 13.7031 11.9833 13.4753 11.9833C13.2475 11.9833 13.0503 11.9 12.8837 11.7333L8.00033 6.85001Z" fill="#3D73FF"/>
</g>
</g>
</svg>
