<svg width="28" height="28" viewBox="0 0 28 28" fill="none" xmlns="http://www.w3.org/2000/svg">
<g id="fi_7170746" clip-path="url(#clip0_388_1648)">
<path id="Vector" d="M21.7 7.72339C20.02 7.72339 18.4333 8.37671 17.3017 9.50838L14 12.4367L12.2267 14.0001H12.2383L9.1 16.7884C8.35333 17.5351 7.36167 17.9434 6.3 17.9434C4.11833 17.9434 2.345 16.1817 2.345 14.0001C2.345 11.8184 4.11833 10.0567 6.3 10.0567C7.36167 10.0567 8.35333 10.465 9.14667 11.2584L10.465 12.4251L12.2267 10.8617L10.7567 9.56672C9.56667 8.37672 7.98 7.72339 6.3 7.72339C2.82333 7.72339 0 10.5467 0 14.0001C0 17.4534 2.82333 20.2767 6.3 20.2767C7.98 20.2767 9.56667 19.6234 10.6983 18.4917L14 15.5751L14.0117 15.5867L15.7733 14.0001H15.7617L18.9 11.2117C19.6467 10.4651 20.6383 10.0567 21.7 10.0567C23.8817 10.0567 25.655 11.8184 25.655 14.0001C25.655 16.1817 23.8817 17.9434 21.7 17.9434C20.65 17.9434 19.6467 17.5351 18.8533 16.7417L17.5233 15.5634L15.7617 17.1267L17.2433 18.4334C18.4333 19.6117 20.0083 20.2651 21.7 20.2651C25.1767 20.2651 28 17.4534 28 13.9884C28 10.5234 25.1767 7.72339 21.7 7.72339Z" fill="#FF5FCC"/>
</g>
<defs>
<clipPath id="clip0_388_1648">
<rect width="28" height="28" fill="white"/>
</clipPath>
</defs>
</svg>
