<svg width="28" height="28" viewBox="0 0 28 28" fill="none" xmlns="http://www.w3.org/2000/svg">
<g id="fi_100825">
<path id="Vector" d="M25.7745 19.6948L22.9306 18.0529L25.3951 16.5997C25.8497 16.3316 26.0009 15.7458 25.7328 15.2913C25.4648 14.8368 24.8791 14.6856 24.4244 14.9535L21.0295 16.9554L15.9107 13.9999L21.0286 11.045L24.4246 13.0466C24.5768 13.1364 24.744 13.179 24.9088 13.179C25.236 13.179 25.5546 13.0108 25.7328 12.7085C26.0008 12.2539 25.8494 11.6681 25.3949 11.4001L22.9299 9.94736L25.7745 8.30505C26.2315 8.04121 26.3881 7.45682 26.1242 6.99984C25.8604 6.54273 25.276 6.38616 24.819 6.65013L21.9751 8.29218L21.9492 5.43066C21.9445 4.90297 21.5116 4.47657 20.9852 4.48383C20.4575 4.48854 20.0335 4.92017 20.0383 5.44786L20.0739 9.38973L14.9553 12.345V6.43495L18.3871 4.49542C18.8465 4.23578 19.0084 3.65293 18.7488 3.1934C18.4892 2.73399 17.9062 2.57194 17.4468 2.83171L14.9553 4.23986V0.955497C14.9553 0.427808 14.5275 0 13.9999 0C13.4722 0 13.0444 0.427808 13.0444 0.955497V4.23986L10.5529 2.83184C10.0933 2.57207 9.51068 2.73399 9.25091 3.19352C8.99127 3.65293 9.15319 4.23591 9.6126 4.49555L13.0442 6.43508V12.345L7.9257 9.38973L7.96124 5.44786C7.96608 4.92017 7.5421 4.48854 7.01441 4.48383C7.01148 4.48383 7.00868 4.48383 7.00562 4.48383C6.48201 4.48383 6.05509 4.9059 6.05038 5.43079L6.02452 8.29218L3.18057 6.65013C2.72359 6.38616 2.13921 6.54286 1.87537 6.99984C1.61152 7.45682 1.7681 8.04121 2.22508 8.30505L5.06953 9.94736L2.60422 11.4003C2.14966 11.6683 1.99831 12.2541 2.26623 12.7087C2.44446 13.0111 2.76309 13.1792 3.09038 13.1792C3.25523 13.1792 3.42225 13.1365 3.57462 13.0469L6.97097 11.0453L12.089 14.0002L6.97007 16.9556L3.57462 14.9534C3.12031 14.6855 2.53428 14.8366 2.26623 15.2911C1.99818 15.7457 2.1494 16.3315 2.60396 16.5994L5.06889 18.0528L2.22495 19.6947C1.76797 19.9585 1.61139 20.5429 1.87524 20.9999C2.0522 21.3064 2.37337 21.4778 2.70359 21.4778C2.86564 21.4778 3.02999 21.4365 3.18045 21.3496L6.02439 19.7076L6.05025 22.5692C6.05496 23.094 6.48188 23.5162 7.00549 23.5162C7.00842 23.5162 7.01135 23.5162 7.01428 23.516C7.54197 23.5113 7.96596 23.0797 7.96112 22.552L7.92557 18.61L13.0442 15.6547V21.5649L9.6126 23.5045C9.15319 23.7641 8.99127 24.3469 9.25091 24.8065C9.42659 25.1173 9.75031 25.292 10.0836 25.292C10.2428 25.292 10.4044 25.2521 10.5529 25.1682L13.0444 23.7601V27.0445C13.0444 27.5722 13.4722 28 13.9999 28C14.5275 28 14.9553 27.5722 14.9553 27.0445V23.7601L17.4468 25.1682C17.5953 25.2521 17.7567 25.292 17.9161 25.292C18.2494 25.292 18.5731 25.1173 18.7488 24.8065C19.0084 24.3471 18.8465 23.7641 18.3871 23.5045L14.9553 21.5649V15.6549L20.0739 18.61L20.0374 22.5519C20.0325 23.0796 20.4563 23.5113 20.984 23.5162C20.9871 23.5163 20.99 23.5163 20.9931 23.5163C21.5166 23.5163 21.9435 23.0942 21.9483 22.5696L21.9748 19.7076L24.8191 21.3497C24.9696 21.4366 25.1339 21.4779 25.296 21.4779C25.6262 21.4779 25.9474 21.3064 26.1243 21C26.3882 20.543 26.2316 19.9587 25.7745 19.6948Z" fill="#3D73FF"/>
</g>
</svg>
