<svg width="28" height="28" viewBox="0 0 28 28" fill="none" xmlns="http://www.w3.org/2000/svg">
<g id="fi_735643" clip-path="url(#clip0_388_1691)">
<g id="Group">
<g id="Group_2">
<g id="Group_3">
<path id="Vector" d="M27.6804 10.3124C26.6534 7.15179 23.4738 5.39217 20.4037 5.94265C19.9661 2.80003 17.2612 0.373047 14 0.373047C10.7388 0.373047 8.03389 2.80003 7.59628 5.94265C4.52595 5.39239 1.34669 7.15147 0.319655 10.3124C-0.707487 13.4737 0.831367 16.7653 3.63804 18.1247C2.14485 20.9243 2.90676 24.4778 5.54506 26.3947C8.16339 28.2969 11.7811 27.9563 14 25.6522C16.2184 27.9558 19.8353 28.2979 22.4549 26.3946C25.0932 24.4778 25.855 20.9243 24.3619 18.1247C27.1694 16.7651 28.7073 13.4731 27.6804 10.3124ZM22.8533 16.3793L22.3541 16.5415C21.6473 16.7713 21.3714 17.6245 21.8073 18.2244L22.1158 18.6491C23.5025 20.5576 23.0779 23.2385 21.1694 24.6251C19.2608 26.0117 16.5799 25.5871 15.1933 23.6786L14.8848 23.2538C14.4479 22.6525 13.5512 22.6539 13.1152 23.2538L12.8067 23.6786C11.42 25.5871 8.73919 26.0117 6.83071 24.6251C4.92216 23.2384 4.49752 20.5576 5.88417 18.649L6.19272 18.2244C6.62957 17.6231 6.35121 16.7706 5.6459 16.5415L5.14671 16.3793C2.89796 15.6486 1.66891 13.2374 2.39981 10.9883C3.12759 8.74823 5.53286 7.50776 7.7908 8.24145L8.2901 8.40365C8.99557 8.63268 9.72166 8.1068 9.72166 7.36355V6.8386C9.72166 4.47948 11.641 2.56022 14 2.56022C16.359 2.56022 18.2783 4.47954 18.2783 6.8386V7.36355C18.2783 8.10675 19.0044 8.63274 19.7099 8.40365L20.2092 8.24139C22.4578 7.51082 24.8694 8.73899 25.6002 10.9883C26.3309 13.237 25.1024 15.6485 22.8533 16.3793Z" fill="#E33351"/>
<path id="Vector_2" d="M13.9999 10.2893C11.5879 10.2893 9.62549 12.2517 9.62549 14.6638C9.62549 17.0759 11.5878 19.0382 13.9999 19.0382C16.4121 19.0382 18.3744 17.0759 18.3744 14.6638C18.3744 12.2517 16.4121 10.2893 13.9999 10.2893ZM13.9999 16.8509C12.7939 16.8509 11.8127 15.8697 11.8127 14.6637C11.8127 13.4577 12.7939 12.4765 13.9999 12.4765C15.206 12.4765 16.1872 13.4577 16.1872 14.6637C16.1872 15.8698 15.206 16.8509 13.9999 16.8509Z" fill="#E33351"/>
</g>
</g>
</g>
</g>
<defs>
<clipPath id="clip0_388_1691">
<rect width="28" height="28" fill="white"/>
</clipPath>
</defs>
</svg>
