<svg width="28" height="28" viewBox="0 0 28 28" fill="none" xmlns="http://www.w3.org/2000/svg">
<g id="fi_1004519" clip-path="url(#clip0_388_1715)">
<g id="Group">
<g id="Group_2">
<path id="Vector" d="M7.4003 5.75039L5.75063 4.10072C5.29563 3.64514 4.55596 3.64514 4.10096 4.10072C3.64538 4.5563 3.64538 5.2948 4.10096 5.75039L5.75063 7.40005C5.97813 7.62814 6.2768 7.74189 6.57546 7.74189C6.87413 7.74189 7.1728 7.62814 7.4003 7.40005C7.85588 6.94447 7.85588 6.20597 7.4003 5.75039Z" fill="#D9F03D"/>
</g>
</g>
<g id="Group_3">
<g id="Group_4">
<path id="Vector_2" d="M3.5 12.8333H1.16667C0.522667 12.8333 0 13.3559 0 13.9999C0 14.6439 0.522667 15.1666 1.16667 15.1666H3.5C4.144 15.1666 4.66667 14.6439 4.66667 13.9999C4.66667 13.3559 4.144 12.8333 3.5 12.8333Z" fill="#D9F03D"/>
</g>
</g>
<g id="Group_5">
<g id="Group_6">
<path id="Vector_3" d="M7.4003 20.5997C6.9453 20.1442 6.20563 20.1442 5.75063 20.5997L4.10096 22.2494C3.64538 22.705 3.64538 23.4435 4.10096 23.8991C4.32846 24.1272 4.62713 24.2409 4.9258 24.2409C5.22446 24.2409 5.52313 24.1272 5.75063 23.8991L7.4003 22.2494C7.85588 21.7938 7.85588 21.0553 7.4003 20.5997Z" fill="#D9F03D"/>
</g>
</g>
<g id="Group_7">
<g id="Group_8">
<path id="Vector_4" d="M14.0002 23.3333C13.3562 23.3333 12.8335 23.8559 12.8335 24.4999V26.8333C12.8335 27.4773 13.3562 27.9999 14.0002 27.9999C14.6442 27.9999 15.1668 27.4773 15.1668 26.8333V24.4999C15.1668 23.8559 14.6442 23.3333 14.0002 23.3333Z" fill="#D9F03D"/>
</g>
</g>
<g id="Group_9">
<g id="Group_10">
<path id="Vector_5" d="M23.8993 22.2494L22.2497 20.5997C21.7947 20.1442 21.055 20.1442 20.6 20.5997C20.1444 21.0553 20.1444 21.7938 20.6 22.2494L22.2497 23.8991C22.4772 24.1272 22.7758 24.2409 23.0745 24.2409C23.3732 24.2409 23.6718 24.1272 23.8993 23.8991C24.3549 23.4435 24.3549 22.705 23.8993 22.2494Z" fill="#D9F03D"/>
</g>
</g>
<g id="Group_11">
<g id="Group_12">
<path id="Vector_6" d="M26.8335 12.8333H24.5002C23.8562 12.8333 23.3335 13.3559 23.3335 13.9999C23.3335 14.6439 23.8562 15.1666 24.5002 15.1666H26.8335C27.4775 15.1666 28.0002 14.6439 28.0002 13.9999C28.0002 13.3559 27.4775 12.8333 26.8335 12.8333Z" fill="#D9F03D"/>
</g>
</g>
<g id="Group_13">
<g id="Group_14">
<path id="Vector_7" d="M23.8993 4.10072C23.4443 3.64514 22.7047 3.64514 22.2497 4.10072L20.6 5.75039C20.1444 6.20597 20.1444 6.94447 20.6 7.40005C20.8275 7.62814 21.1262 7.74189 21.4248 7.74189C21.7235 7.74189 22.0222 7.62814 22.2497 7.40005L23.8993 5.75039C24.3549 5.2948 24.3549 4.5563 23.8993 4.10072Z" fill="#D9F03D"/>
</g>
</g>
<g id="Group_15">
<g id="Group_16">
<path id="Vector_8" d="M14.0002 0C13.3562 0 12.8335 0.522667 12.8335 1.16667V3.5C12.8335 4.144 13.3562 4.66667 14.0002 4.66667C14.6442 4.66667 15.1668 4.144 15.1668 3.5V1.16667C15.1668 0.522667 14.6442 0 14.0002 0Z" fill="#D9F03D"/>
</g>
</g>
<g id="Group_17">
<g id="Group_18">
<path id="Vector_9" d="M13.9998 6.41675C9.8185 6.41675 6.4165 9.81875 6.4165 14.0001C6.4165 18.1814 9.8185 21.5834 13.9998 21.5834C18.1812 21.5834 21.5832 18.1814 21.5832 14.0001C21.5832 9.81875 18.1812 6.41675 13.9998 6.41675ZM13.9998 19.2501C11.1053 19.2501 8.74984 16.8946 8.74984 14.0001C8.74984 11.1056 11.1053 8.75008 13.9998 8.75008C16.8943 8.75008 19.2498 11.1056 19.2498 14.0001C19.2498 16.8946 16.8943 19.2501 13.9998 19.2501Z" fill="#D9F03D"/>
</g>
</g>
</g>
<defs>
<clipPath id="clip0_388_1715">
<rect width="28" height="28" fill="white"/>
</clipPath>
</defs>
</svg>
