<svg width="28" height="29" viewBox="0 0 28 29" fill="none" xmlns="http://www.w3.org/2000/svg">
<g id="vuesax/broken/people">
<g id="people">
<g id="Group">
<path id="Vector" d="M20.9998 8.8535C20.9298 8.84183 20.8481 8.84183 20.7781 8.8535C19.1681 8.79517 17.8848 7.47683 17.8848 5.8435C17.8848 4.17516 19.2264 2.8335 20.8948 2.8335C22.5631 2.8335 23.9048 4.18683 23.9048 5.8435C23.8931 7.47683 22.6098 8.79517 20.9998 8.8535Z" stroke="white" stroke-width="1.5" stroke-linecap="round" stroke-linejoin="round"/>
<path id="Vector_2" d="M19.7967 17.347C21.3951 17.6154 23.1567 17.3353 24.3934 16.507C26.0384 15.4103 26.0384 13.6137 24.3934 12.517C23.1451 11.6887 21.3601 11.4087 19.7617 11.6887" stroke="white" stroke-width="1.5" stroke-linecap="round" stroke-linejoin="round"/>
</g>
<g id="Group_2">
<path id="Vector_3" d="M6.96555 8.8535C7.03555 8.84183 7.11721 8.84183 7.18721 8.8535C8.79721 8.79517 10.0805 7.47683 10.0805 5.8435C10.0805 4.17516 8.73888 2.8335 7.07055 2.8335C5.40222 2.8335 4.06055 4.18683 4.06055 5.8435C4.07221 7.47683 5.35555 8.79517 6.96555 8.8535Z" stroke="white" stroke-width="1.5" stroke-linecap="round" stroke-linejoin="round"/>
<path id="Vector_4" d="M8.16635 17.347C6.56802 17.6154 4.80635 17.3353 3.56969 16.507C1.92469 15.4103 1.92469 13.6137 3.56969 12.517C4.81802 11.6887 6.60302 11.4087 8.20135 11.6887" stroke="white" stroke-width="1.5" stroke-linecap="round" stroke-linejoin="round"/>
</g>
<g id="Group_3">
<path id="Vector_5" d="M13.9998 17.5683C13.9298 17.5567 13.8481 17.5567 13.7781 17.5683C12.1681 17.51 10.8848 16.1917 10.8848 14.5583C10.8848 12.89 12.2264 11.5483 13.8948 11.5483C15.5631 11.5483 16.9048 12.9017 16.9048 14.5583C16.8931 16.1917 15.6098 17.5217 13.9998 17.5683Z" stroke="white" stroke-width="1.5" stroke-linecap="round" stroke-linejoin="round"/>
<path id="Vector_6" d="M17.3948 21.2434C15.5398 20.0068 12.4715 20.0068 10.6048 21.2434C8.95984 22.3401 8.95984 24.1367 10.6048 25.2334C12.4715 26.4817 15.5282 26.4817 17.3948 25.2334" stroke="white" stroke-width="1.5" stroke-linecap="round" stroke-linejoin="round"/>
</g>
</g>
</g>
</svg>
