<svg width="24" height="25" viewBox="0 0 24 25" fill="none" xmlns="http://www.w3.org/2000/svg">
<g id="bid_landscape">
<mask id="mask0_284_6132" style="mask-type:alpha" maskUnits="userSpaceOnUse" x="0" y="0" width="24" height="25">
<rect id="Bounding box" y="0.5" width="24" height="24" fill="#D9D9D9"/>
</mask>
<g mask="url(#mask0_284_6132)">
<path id="bid_landscape_2" d="M5 21.5C4.45 21.5 3.97917 21.3042 3.5875 20.9125C3.19583 20.5208 3 20.05 3 19.5V5.5C3 4.95 3.19583 4.47917 3.5875 4.0875C3.97917 3.69583 4.45 3.5 5 3.5H19C19.55 3.5 20.0208 3.69583 20.4125 4.0875C20.8042 4.47917 21 4.95 21 5.5V19.5C21 20.05 20.8042 20.5208 20.4125 20.9125C20.0208 21.3042 19.55 21.5 19 21.5H5ZM19 7.75L12.95 14.55L9.7 11.3C9.5 11.1 9.26667 11 9 11C8.73333 11 8.5 11.1 8.3 11.3L5 14.6V17.45L9 13.45L12.3 16.75C12.5 16.95 12.7458 17.0458 13.0375 17.0375C13.3292 17.0292 13.5667 16.9167 13.75 16.7L19 10.75V7.75Z" fill="#3D73FF"/>
</g>
</g>
</svg>
