<svg width="25" height="24" viewBox="0 0 25 24" fill="none" xmlns="http://www.w3.org/2000/svg">
<g id="check_small">
<mask id="mask0_284_9123" style="mask-type:alpha" maskUnits="userSpaceOnUse" x="0" y="0" width="25" height="24">
<rect id="Bounding box" x="0.777344" width="24" height="24" fill="#D9D9D9"/>
</mask>
<g mask="url(#mask0_284_9123)">
<path id="check_small_2" d="M10.7771 13.6L16.6771 7.7C16.8605 7.51667 17.0938 7.425 17.3771 7.425C17.6605 7.425 17.8938 7.51667 18.0771 7.7C18.2605 7.88334 18.3521 8.11667 18.3521 8.4C18.3521 8.68334 18.2605 8.91667 18.0771 9.1L11.4771 15.7C11.2771 15.9 11.0438 16 10.7771 16C10.5105 16 10.2771 15.9 10.0771 15.7L7.47715 13.1C7.29382 12.9167 7.20215 12.6833 7.20215 12.4C7.20215 12.1167 7.29382 11.8833 7.47715 11.7C7.66048 11.5167 7.89382 11.425 8.17715 11.425C8.46048 11.425 8.69382 11.5167 8.87715 11.7L10.7771 13.6Z" fill="#5AED69"/>
</g>
</g>
</svg>
