<svg width="25" height="24" viewBox="0 0 25 24" fill="none" xmlns="http://www.w3.org/2000/svg">
<g id="close_small">
<mask id="mask0_284_9126" style="mask-type:alpha" maskUnits="userSpaceOnUse" x="0" y="0" width="25" height="24">
<rect id="Bounding box" x="0.777344" width="24" height="24" fill="#D9D9D9"/>
</mask>
<g mask="url(#mask0_284_9126)">
<path id="close_small_2" d="M12.7777 13.4L9.86098 16.325C9.67648 16.5083 9.44173 16.6 9.15673 16.6C8.87173 16.6 8.63707 16.5083 8.45273 16.325C8.2694 16.1417 8.17773 15.9083 8.17773 15.625C8.17773 15.3417 8.2694 15.1083 8.45273 14.925L11.3777 12L8.45273 9.10825C8.2694 8.92375 8.17773 8.689 8.17773 8.404C8.17773 8.119 8.2694 7.88434 8.45273 7.7C8.63607 7.51667 8.8694 7.425 9.15273 7.425C9.43607 7.425 9.6694 7.51667 9.85273 7.7L12.7777 10.625L15.6695 7.7C15.854 7.51667 16.0887 7.425 16.3737 7.425C16.6587 7.425 16.8934 7.51667 17.0777 7.7C17.2777 7.9 17.3777 8.1375 17.3777 8.4125C17.3777 8.6875 17.2777 8.91667 17.0777 9.1L14.1527 12L17.0777 14.9168C17.2611 15.1013 17.3527 15.336 17.3527 15.621C17.3527 15.906 17.2611 16.1407 17.0777 16.325C16.8777 16.525 16.6402 16.625 16.3652 16.625C16.0902 16.625 15.8611 16.525 15.6777 16.325L12.7777 13.4Z" fill="#E33351"/>
</g>
</g>
</svg>
