<svg width="24" height="25" viewBox="0 0 24 25" fill="none" xmlns="http://www.w3.org/2000/svg">
<g id="history_2">
<mask id="mask0_284_6127" style="mask-type:alpha" maskUnits="userSpaceOnUse" x="0" y="0" width="24" height="25">
<rect id="Bounding box" y="0.5" width="24" height="24" fill="#D9D9D9"/>
</mask>
<g mask="url(#mask0_284_6127)">
<path id="history_2_2" d="M12.0003 22.5C9.63358 22.5 7.54608 21.775 5.73775 20.325C3.92942 18.875 2.76692 17.025 2.25025 14.775C2.18358 14.4917 2.23358 14.2375 2.40025 14.0125C2.56692 13.7875 2.79192 13.6583 3.07525 13.625C3.35858 13.5917 3.60858 13.6583 3.82525 13.825C4.04192 13.9917 4.19192 14.2167 4.27525 14.5C4.72525 16.25 5.66275 17.6875 7.08775 18.8125C8.51275 19.9375 10.1503 20.5 12.0003 20.5C14.2336 20.5 16.1253 19.725 17.6753 18.175C19.2253 16.625 20.0003 14.7333 20.0003 12.5C20.0003 10.2667 19.2253 8.375 17.6753 6.825C16.1253 5.275 14.2336 4.5 12.0003 4.5C10.5669 4.5 9.23775 4.85417 8.01275 5.5625C6.78775 6.27083 5.81692 7.25 5.10025 8.5H7.00025C7.28358 8.5 7.52108 8.59583 7.71275 8.7875C7.90442 8.97917 8.00025 9.21667 8.00025 9.5C8.00025 9.78333 7.90442 10.0208 7.71275 10.2125C7.52108 10.4042 7.28358 10.5 7.00025 10.5H3.60025C3.23358 10.5 2.94192 10.3542 2.72525 10.0625C2.50858 9.77083 2.45858 9.45833 2.57525 9.125C3.27525 7.15833 4.48358 5.5625 6.20025 4.3375C7.91692 3.1125 9.85025 2.5 12.0003 2.5C13.3836 2.5 14.6836 2.7625 15.9003 3.2875C17.1169 3.8125 18.1753 4.525 19.0753 5.425C19.9753 6.325 20.6878 7.38333 21.2128 8.6C21.7378 9.81667 22.0003 11.1167 22.0003 12.5C22.0003 13.8833 21.7378 15.1833 21.2128 16.4C20.6878 17.6167 19.9753 18.675 19.0753 19.575C18.1753 20.475 17.1169 21.1875 15.9003 21.7125C14.6836 22.2375 13.3836 22.5 12.0003 22.5ZM13.0003 12.1L15.5003 14.6C15.6836 14.7833 15.7753 15.0167 15.7753 15.3C15.7753 15.5833 15.6836 15.8167 15.5003 16C15.3169 16.1833 15.0836 16.275 14.8003 16.275C14.5169 16.275 14.2836 16.1833 14.1003 16L11.3003 13.2C11.2003 13.1 11.1253 12.9875 11.0753 12.8625C11.0253 12.7375 11.0003 12.6083 11.0003 12.475V8.5C11.0003 8.21667 11.0961 7.97917 11.2878 7.7875C11.4794 7.59583 11.7169 7.5 12.0003 7.5C12.2836 7.5 12.5211 7.59583 12.7128 7.7875C12.9044 7.97917 13.0003 8.21667 13.0003 8.5V12.1Z" fill="#3D73FF"/>
</g>
</g>
</svg>
