<svg width="24" height="25" viewBox="0 0 24 25" fill="none" xmlns="http://www.w3.org/2000/svg">
<g id="hotel_class">
<mask id="mask0_284_6122" style="mask-type:alpha" maskUnits="userSpaceOnUse" x="0" y="0" width="24" height="25">
<rect id="Bounding box" y="0.5" width="24" height="24" fill="#D9D9D9"/>
</mask>
<g mask="url(#mask0_284_6122)">
<path id="hotel_class_2" d="M16.7002 15L20.5002 11.75L21.1502 11.8C21.4335 11.8333 21.6544 11.95 21.8127 12.15C21.971 12.35 22.0502 12.5667 22.0502 12.8C22.0502 12.9333 22.0252 13.0667 21.9752 13.2C21.9252 13.3333 21.8335 13.45 21.7002 13.55L19.1002 15.825L19.8752 19.2C19.8919 19.2333 19.9002 19.2708 19.9002 19.3125V19.425C19.9002 19.7083 19.8002 19.9458 19.6002 20.1375C19.4002 20.3292 19.1669 20.425 18.9002 20.425C18.8169 20.425 18.7294 20.4125 18.6377 20.3875C18.546 20.3625 18.4585 20.325 18.3752 20.275L17.8502 19.95L16.7002 15ZM14.3502 7.7L13.3002 5.25L13.5252 4.7C13.6085 4.5 13.7377 4.34583 13.9127 4.2375C14.0877 4.12917 14.2669 4.075 14.4502 4.075C14.6335 4.075 14.8127 4.125 14.9877 4.225C15.1627 4.325 15.2919 4.475 15.3752 4.675L16.7502 7.925L14.3502 7.7ZM4.8502 19.2L5.9502 14.475L2.2752 11.3C2.14186 11.2 2.05436 11.0833 2.0127 10.95C1.97103 10.8167 1.9502 10.6833 1.9502 10.55C1.9502 10.3167 2.02936 10.1 2.1877 9.9C2.34603 9.7 2.56686 9.58333 2.8502 9.55L7.7002 9.125L9.5752 4.675C9.65853 4.475 9.78769 4.325 9.9627 4.225C10.1377 4.125 10.3169 4.075 10.5002 4.075C10.6835 4.075 10.8627 4.125 11.0377 4.225C11.2127 4.325 11.3419 4.475 11.4252 4.675L13.3002 9.125L18.1502 9.55C18.4335 9.58333 18.6544 9.7 18.8127 9.9C18.971 10.1 19.0502 10.3167 19.0502 10.55C19.0502 10.6833 19.0294 10.8167 18.9877 10.95C18.946 11.0833 18.8585 11.2 18.7252 11.3L15.0502 14.475L16.1502 19.2C16.1669 19.25 16.1752 19.325 16.1752 19.425C16.1752 19.7083 16.0752 19.9458 15.8752 20.1375C15.6752 20.3292 15.4419 20.425 15.1752 20.425C15.1252 20.425 14.9502 20.375 14.6502 20.275L10.5002 17.775L6.3502 20.275C6.26686 20.325 6.17936 20.3625 6.0877 20.3875C5.99603 20.4125 5.90853 20.425 5.8252 20.425C5.5252 20.425 5.26686 20.3042 5.0502 20.0625C4.83353 19.8208 4.76686 19.5333 4.8502 19.2Z" fill="#3D73FF"/>
</g>
</g>
</svg>
