<svg xmlns="http://www.w3.org/2000/svg" width="86" height="70" viewBox="0 0 86 70" fill="none">
    <path fill-rule="evenodd" clip-rule="evenodd" d="M73.385 4.7613H72.2883C71.4566 4.7613 70.3605 5.307 70.3605 6.5402V14.3002C70.3605 15.0012 71.0409 15.5748 71.8728 15.5748C72.7046 15.5748 73.385 15.0012 73.385 14.3002V4.7613ZM76.5232 10.3314C78.5296 10.0235 79.5399 9.01721 79.5787 6.89914C79.6174 4.78107 76.9625 2.61693 73.6212 2.50428C71.1674 2.42152 68.7825 3.03886 67.025 4.54564C65.4533 5.89309 64.7014 7.76795 64.5722 9.62651C64.3545 12.7583 66.4089 15.7599 69.654 16.9477C72.7101 18.1544 75.8986 18.4131 78.999 18.5357C74.2551 20.2816 69.539 20.4662 64.8836 17.2056C62.4533 15.1721 60.9208 12.356 61.121 9.4762C61.2961 6.95991 62.4965 4.37284 64.6168 2.55504C67.0491 0.469706 70.4576 -0.198522 73.8622 0.0490064C76.2025 0.219089 78.4285 1.02751 80.0729 2.45697C81.4613 3.66398 82.4607 5.1867 82.282 7.02846C82.1032 8.87034 80.2172 12.1574 76.3365 11.9657C74.9507 11.8973 74.6817 10.6347 76.5232 10.3314Z" fill="url(#paint0_linear_284_8266)"/>
    <path d="M0.935547 1.50159H13.7219V5.33222H6.73553V8.84171H13.1947V12.0545H6.73553V18.9004H0.935547V1.50159Z" fill="white"/>
    <path d="M25.3346 14.7237C26.3452 14.7237 27.112 14.4663 27.6349 13.9514C28.1577 13.4365 28.4192 12.6806 28.4192 11.6838V1.50159H34.5092V11.6838C34.5092 12.5735 34.384 13.3789 34.1335 14.0997C33.8831 14.8204 33.5404 15.4631 33.1053 16.0273C32.6703 16.5917 32.1584 17.0798 31.5696 17.4917C30.9808 17.9035 30.346 18.2434 29.6649 18.5111C28.9838 18.7789 28.2742 18.9766 27.5361 19.1042C26.7978 19.232 26.064 19.2958 25.3346 19.2958C22.8301 19.2958 20.7078 18.6533 18.9678 17.3681C17.096 16.0006 16.1602 14.1059 16.1602 11.6838V1.50159H22.2502V11.6838C22.2502 13.7104 23.2783 14.7237 25.3346 14.7237Z" fill="white"/>
    <path d="M37.8711 1.50159H43.2756L50.6838 10.8682V1.50159H55.5083V18.9004H50.1037L42.6692 9.83021V18.9004H37.8711V1.50159Z" fill="white"/>
    <path d="M0.935547 26.8537H7.6319C9.02048 26.8537 10.2552 26.9813 11.336 27.2367C12.4169 27.492 13.3265 27.8669 14.0647 28.3612C14.8028 28.8555 15.3653 29.4589 15.7519 30.1715C16.1386 30.8842 16.3319 31.6977 16.3319 32.6121C16.3319 33.5017 16.1122 34.2967 15.6729 34.997C15.2335 35.6973 14.6315 36.2925 13.8669 36.7826C13.1025 37.2727 12.2082 37.6476 11.1845 37.9071C10.1607 38.1666 9.06432 38.2963 7.89561 38.2963H6.76197V44.2525H0.935547V26.8537ZM7.92192 34.7869C8.85348 34.7869 9.58285 34.6057 10.1101 34.2432C10.6374 33.8807 10.901 33.337 10.901 32.6121C10.901 32.2578 10.8242 31.9489 10.6704 31.6853C10.5165 31.4217 10.3057 31.2013 10.0376 31.0241C9.76961 30.847 9.45538 30.7132 9.09508 30.6226C8.73478 30.5319 8.34373 30.4867 7.92192 30.4867H6.76197V34.7375C6.88499 34.754 7.04321 34.7663 7.23652 34.7746C7.42982 34.7829 7.65833 34.7869 7.92192 34.7869Z" fill="#F6FD11"/>
    <path d="M21.0511 26.8537H29.2501L34.6283 44.2525H28.2747L27.5629 40.9161H22.7647L22.0002 44.2525H15.9102L21.0511 26.8537ZM26.9301 37.8021L25.1638 30.19L23.3446 37.8021H26.9301Z" fill="#F6FD11"/>
    <path d="M36.4082 26.8537H44.4755C45.9782 26.8537 47.3402 27.0658 48.5618 27.4901C49.7832 27.9143 50.8268 28.5054 51.6924 29.2633C52.558 30.0212 53.2281 30.9253 53.7027 31.9757C54.1772 33.0261 54.4145 34.1773 54.4145 35.4295C54.4145 36.7477 54.1795 37.9482 53.7092 39.0316C53.2391 40.115 52.569 41.0438 51.699 41.8181C50.8291 42.5925 49.7832 43.1919 48.5618 43.6161C47.3402 44.0403 45.9782 44.2525 44.4755 44.2525H36.4082V26.8537ZM44.4755 39.705C45.1521 39.705 45.7342 39.5692 46.222 39.2973C46.7098 39.0254 47.1118 38.6795 47.4281 38.2593C47.7445 37.8392 47.9774 37.3736 48.1268 36.8629C48.2762 36.3522 48.3508 35.8578 48.3508 35.3801C48.3508 34.8034 48.2564 34.272 48.0675 33.786C47.8785 33.2999 47.6127 32.8798 47.2699 32.5256C46.9273 32.1714 46.5186 31.8954 46.044 31.6977C45.5695 31.4999 45.0466 31.4011 44.4755 31.4011H42.3663V39.705H44.4755Z" fill="#F6FD11"/>
    <path d="M57.0371 26.8537H70.0607V30.6843H63.5754V33.8478H69.5071V37.0359H63.5754V40.4465H70.0607V44.2525H57.0371V26.8537Z" fill="#F6FD11"/>
    <path d="M73.0938 26.8537H78.9201V40.5206H85.3528V44.2525H73.0938V26.8537Z" fill="#F6FD11"/>
    <path d="M10.7036 65.4279C11.0112 65.4279 11.2969 65.4134 11.5604 65.3845C11.8242 65.3558 12.0855 65.3125 12.3448 65.2549C12.604 65.1972 12.8699 65.1231 13.1423 65.0324C13.4147 64.9419 13.7179 64.8348 14.0518 64.7111L14.79 68.7272C13.2258 69.5757 11.5209 70 9.67546 70C7.06542 70 4.82902 69.1761 2.96589 67.5286C1.01506 65.815 0.0264326 63.6031 0 60.8927C0 59.5747 0.241722 58.3595 0.725044 57.2474C1.20837 56.1352 1.87622 55.1776 2.72861 54.3744C3.58113 53.5711 4.5873 52.945 5.74724 52.496C6.90732 52.0472 8.16398 51.8226 9.51723 51.8226C11.4419 51.8226 13.1906 52.2428 14.7636 53.0831L14.0518 57.0127C12.76 56.5514 11.5912 56.3206 10.5455 56.3206C9.07788 56.3206 7.964 56.7181 7.20388 57.5131C6.44376 58.3081 6.0637 59.4265 6.0637 60.868C6.0637 61.5848 6.16696 62.2254 6.37348 62.7896C6.58 63.3539 6.88088 63.8317 7.27639 64.223C7.67189 64.6143 8.15731 64.913 8.73302 65.119C9.30861 65.3249 9.96547 65.4279 10.7036 65.4279Z" fill="white"/>
    <path d="M17.2422 52.2057H23.0685V65.8727H29.5012V69.6047H17.2422V52.2057Z" fill="white"/>
    <path d="M40.192 65.4279C41.2027 65.4279 41.9695 65.1704 42.4923 64.6556C43.0151 64.1406 43.2766 63.3848 43.2766 62.3881V52.2057H49.3666V62.3881C49.3666 63.2778 49.2414 64.0831 48.9909 64.8038C48.7405 65.5246 48.3978 66.1673 47.9627 66.7315C47.5277 67.2959 47.0159 67.784 46.4271 68.196C45.8383 68.6078 45.2034 68.9477 44.5223 69.2153C43.8412 69.4831 43.1316 69.6807 42.3935 69.8085C41.6552 69.9362 40.9215 70 40.192 70C37.6875 70 35.5652 69.3575 33.8252 68.0723C31.9535 66.7048 31.0176 64.81 31.0176 62.3881V52.2057H37.1076V62.3881C37.1076 64.4146 38.1357 65.4279 40.192 65.4279Z" fill="white"/>
    <path d="M61.901 70C59.8798 70 56.8216 69.8765 52.7266 69.6294V52.2057H62.0065C62.9996 52.2057 63.9178 52.3046 64.7616 52.5024C65.6052 52.7 66.3346 52.9801 66.9497 53.3427C67.5648 53.7051 68.046 54.1479 68.3931 54.671C68.7402 55.1941 68.9138 55.7811 68.9138 56.4319C68.9138 57.4946 68.6677 58.3431 68.1756 58.9775C67.6835 59.6118 66.9453 59.999 65.961 60.1391C67.1914 60.2462 68.1316 60.6581 68.7819 61.3747C69.4322 62.0915 69.7575 63.0718 69.7575 64.3158C69.7575 65.0984 69.5597 65.8336 69.1642 66.5216C68.7688 67.2094 68.2195 67.8107 67.5165 68.3256C66.8134 68.8405 65.983 69.2483 65.0251 69.549C64.0673 69.8497 63.0259 70 61.901 70ZM63.8256 63.9697C63.8256 63.6237 63.7575 63.3189 63.6213 63.0553C63.485 62.7917 63.2939 62.5733 63.0479 62.4004C62.8018 62.2274 62.5074 62.0956 62.1647 62.0049C61.822 61.9144 61.4441 61.869 61.0311 61.869H58.7111V65.9345C58.9132 65.9428 59.1109 65.947 59.3042 65.947C59.4975 65.947 59.6822 65.947 59.8578 65.947H61.3737C61.7165 65.947 62.0373 65.9016 62.3361 65.811C62.6348 65.7203 62.8941 65.5885 63.1137 65.4156C63.3335 65.2425 63.507 65.0345 63.6345 64.7914C63.7619 64.5485 63.8256 64.2745 63.8256 63.9697ZM63.2984 57.3463C63.2984 56.1601 62.5074 55.5668 60.9256 55.5668H58.7374V59.0763H60.8729C61.2156 59.0763 61.5364 59.0351 61.8352 58.9528C62.134 58.8704 62.391 58.7551 62.6063 58.6067C62.8216 58.4585 62.9907 58.2772 63.1137 58.063C63.2369 57.8488 63.2984 57.6099 63.2984 57.3463Z" fill="white"/>
    <defs>
        <linearGradient id="paint0_linear_284_8266" x1="71.0235" y1="1.03702" x2="69.4174" y2="23.6459" gradientUnits="userSpaceOnUse">
            <stop stop-color="#EC04CB"/>
            <stop offset="1"/>
        </linearGradient>
    </defs>
</svg>