<svg width="36" height="25" viewBox="0 0 36 25" fill="none" xmlns="http://www.w3.org/2000/svg">
<g id="payment-methods/light/mastercard" clip-path="url(#clip0_284_6193)">
<path id="Rectangle 1" d="M0 3.5C0 1.84315 1.32183 0.5 2.95238 0.5H32.4762C34.1067 0.5 35.4286 1.84315 35.4286 3.5V21.5C35.4286 23.1569 34.1067 24.5 32.4762 24.5H2.95238C1.32183 24.5 0 23.1569 0 21.5V3.5Z" fill="white"/>
<g id="g13">
<g id="XMLID_328_">
<path id="rect19" d="M21.4169 5.39553L13.7871 5.42322L14.0122 19.6045L21.6419 19.5768L21.4169 5.39553Z" fill="#FF5F00"/>
<path id="XMLID_330_" d="M14.2906 12.5415C14.2446 9.65718 15.5181 7.09421 17.5118 5.43159C16.008 4.23309 14.1224 3.51252 12.078 3.51992C7.23479 3.53743 3.38074 7.58957 3.46025 12.5806C3.53976 17.5717 7.52247 21.5955 12.3657 21.5779C14.4101 21.5706 16.2725 20.8364 17.7379 19.6272C15.6919 18.0043 14.3365 15.4257 14.2906 12.5415Z" fill="#EB001B"/>
<path id="path22" d="M31.9681 12.4194C32.0476 17.4105 28.1936 21.4626 23.3503 21.4801C21.306 21.4875 19.4204 20.767 17.9166 19.5685C19.9346 17.9058 21.1837 15.3429 21.1378 12.4586C21.0918 9.57434 19.7368 7.02088 17.6904 5.37286C19.1559 4.16362 21.0183 3.42951 23.0627 3.42211C27.9059 3.4046 31.889 7.45349 31.9681 12.4194Z" fill="#F79E1B"/>
</g>
</g>
</g>
<defs>
<clipPath id="clip0_284_6193">
<rect width="35.4286" height="24" fill="white" transform="translate(0 0.5)"/>
</clipPath>
</defs>
</svg>
