<svg xmlns="http://www.w3.org/2000/svg" width="24" height="25" viewBox="0 0 24 25" fill="none">
    <g>
        <mask id="mask0_284_9988" style="mask-type:alpha" maskUnits="userSpaceOnUse" x="0" y="0" width="24" height="25">
            <rect y="0.5" width="24" height="24" fill="#D9D9D9"/>
        </mask>
        <g mask="url(#mask0_284_9988)">
            <path d="M19.1004 22.4L15.6004 18.95C15.0171 19.1333 14.4254 19.2708 13.8254 19.3625C13.2254 19.4542 12.6171 19.5 12.0004 19.5C9.76706 19.5 7.72539 18.9 5.87539 17.7C4.02539 16.5 2.57539 14.9167 1.52539 12.95C1.44206 12.8 1.37956 12.6458 1.33789 12.4875C1.29622 12.3292 1.27539 12.1667 1.27539 12C1.27539 11.8333 1.29622 11.6708 1.33789 11.5125C1.37956 11.3542 1.44206 11.2 1.52539 11.05C1.89206 10.4 2.28372 9.76667 2.70039 9.15C3.11706 8.53333 3.60039 7.98333 4.15039 7.5L2.07539 5.4C1.89206 5.21667 1.80039 4.9875 1.80039 4.7125C1.80039 4.4375 1.90039 4.2 2.10039 4C2.28372 3.81667 2.51706 3.725 2.80039 3.725C3.08372 3.725 3.31706 3.81667 3.50039 4L20.5004 21C20.6837 21.1833 20.7796 21.4125 20.7879 21.6875C20.7962 21.9625 20.7004 22.2 20.5004 22.4C20.3171 22.5833 20.0837 22.675 19.8004 22.675C19.5171 22.675 19.2837 22.5833 19.1004 22.4ZM12.0004 16.5C12.1837 16.5 12.3587 16.4917 12.5254 16.475C12.6921 16.4583 12.8587 16.425 13.0254 16.375L7.62539 10.975C7.57539 11.1417 7.54206 11.3083 7.52539 11.475C7.50872 11.6417 7.50039 11.8167 7.50039 12C7.50039 13.25 7.93789 14.3125 8.81289 15.1875C9.68789 16.0625 10.7504 16.5 12.0004 16.5ZM12.0004 4.5C14.2337 4.5 16.2796 5.10417 18.1379 6.3125C19.9962 7.52083 21.4504 9.10833 22.5004 11.075C22.5837 11.2083 22.6462 11.3542 22.6879 11.5125C22.7296 11.6708 22.7504 11.8333 22.7504 12C22.7504 12.1667 22.7337 12.3292 22.7004 12.4875C22.6671 12.6458 22.6087 12.7917 22.5254 12.925C22.2087 13.5417 21.8546 14.125 21.4629 14.675C21.0712 15.225 20.6337 15.7417 20.1504 16.225C19.9171 16.4583 19.6421 16.5667 19.3254 16.55C19.0087 16.5333 18.7337 16.4083 18.5004 16.175L16.5004 14.175C16.3837 14.0583 16.3087 13.9208 16.2754 13.7625C16.2421 13.6042 16.2504 13.4417 16.3004 13.275C16.3671 13.0583 16.4171 12.85 16.4504 12.65C16.4837 12.45 16.5004 12.2333 16.5004 12C16.5004 10.75 16.0629 9.6875 15.1879 8.8125C14.3129 7.9375 13.2504 7.5 12.0004 7.5C11.7671 7.5 11.5504 7.51667 11.3504 7.55C11.1504 7.58333 10.9421 7.63333 10.7254 7.7C10.5587 7.75 10.3921 7.75833 10.2254 7.725C10.0587 7.69167 9.91706 7.61667 9.80039 7.5L8.97539 6.675C8.65872 6.35833 8.55456 5.99167 8.66289 5.575C8.77122 5.15833 9.03372 4.89167 9.45039 4.775C9.86706 4.69167 10.2879 4.625 10.7129 4.575C11.1379 4.525 11.5671 4.5 12.0004 4.5ZM13.9754 10.15C14.1587 10.3667 14.3129 10.6042 14.4379 10.8625C14.5629 11.1208 14.6421 11.3917 14.6754 11.675C14.6921 11.8083 14.6421 11.9 14.5254 11.95C14.4087 12 14.3004 11.975 14.2004 11.875L12.1504 9.825C12.0504 9.725 12.0296 9.61667 12.0879 9.5C12.1462 9.38333 12.2421 9.325 12.3754 9.325C12.6921 9.35833 12.9837 9.44583 13.2504 9.5875C13.5171 9.72917 13.7587 9.91667 13.9754 10.15Z" fill="white"/>
        </g>
    </g>
</svg>