<svg width="45" height="31" viewBox="0 0 45 31" fill="none" xmlns="http://www.w3.org/2000/svg">
<g id="payment-methods/light/paypal" clip-path="url(#clip0_388_1967)">
<path id="Rectangle 1" d="M0 4.25C0 2.17893 1.67893 0.5 3.75 0.5H41.25C43.3211 0.5 45 2.17893 45 4.25V26.75C45 28.8211 43.3211 30.5 41.25 30.5H3.75C1.67893 30.5 0 28.8211 0 26.75V4.25Z" fill="#CCDEFF"/>
<g id="Group 10">
<path id="Vector" d="M10.0976 11.2976C9.62762 10.9745 9.01427 10.8125 8.2576 10.8125H5.32818C5.09622 10.8125 4.96807 10.9285 4.94372 11.1603L3.75374 18.6302C3.74137 18.7035 3.75972 18.7706 3.80863 18.8316C3.85727 18.8927 3.91843 18.9231 3.99169 18.9231H5.38314C5.62719 18.9231 5.76133 18.8074 5.78596 18.5753L6.11547 16.5615C6.1275 16.4639 6.17042 16.3845 6.24368 16.3234C6.31687 16.2624 6.40843 16.2225 6.51828 16.2042C6.62814 16.1861 6.73172 16.1769 6.82955 16.1769C6.92709 16.1769 7.04299 16.1832 7.17747 16.1953C7.31161 16.2074 7.39712 16.2134 7.43377 16.2134C8.48341 16.2134 9.30729 15.9177 9.90547 15.3255C10.5034 14.7336 10.8027 13.9129 10.8027 12.8629C10.8027 12.1428 10.5675 11.621 10.0976 11.2974V11.2976ZM8.58727 13.5406C8.52605 13.9678 8.36756 14.2484 8.11126 14.3827C7.85489 14.5172 7.48873 14.5841 7.01277 14.5841L6.40854 14.6024L6.71986 12.6433C6.74415 12.5092 6.82345 12.442 6.95781 12.442H7.30579C7.79378 12.442 8.14797 12.5124 8.36768 12.6525C8.58727 12.793 8.66053 13.089 8.58727 13.5406Z" fill="#003087"/>
<path id="Vector_2" d="M41.0118 10.8125H39.6571C39.5224 10.8125 39.4432 10.8797 39.419 11.014L38.2289 18.6305L38.2106 18.6671C38.2106 18.7284 38.235 18.7861 38.2839 18.8411C38.3325 18.8959 38.3938 18.9234 38.4669 18.9234H39.6755C39.907 18.9234 40.0352 18.8077 40.06 18.5756L41.25 11.0873V11.0691C41.2499 10.8981 41.1704 10.8127 41.0118 10.8127V10.8125Z" fill="#009CDE"/>
<path id="Vector_3" d="M24.6439 13.7605C24.6439 13.6996 24.6194 13.6415 24.5709 13.5867C24.5219 13.5318 24.4669 13.5042 24.4061 13.5042H22.9963C22.8618 13.5042 22.7519 13.5655 22.6666 13.6872L20.7259 16.5435L19.9204 13.7972C19.859 13.602 19.7249 13.5042 19.5176 13.5042H18.1442C18.083 13.5042 18.0281 13.5317 17.9796 13.5867C17.9307 13.6415 17.9064 13.6997 17.9064 13.7605C17.9064 13.785 18.0254 14.145 18.2634 14.8407C18.5013 15.5366 18.7576 16.2873 19.0323 17.093C19.307 17.8984 19.4503 18.3259 19.4625 18.3743C18.4616 19.7415 17.9613 20.4739 17.9613 20.5714C17.9613 20.7302 18.0405 20.8094 18.1993 20.8094H19.6091C19.7433 20.8094 19.8531 20.7485 19.9387 20.6264L24.6075 13.8886C24.6318 13.8644 24.6439 13.8218 24.6439 13.7604V13.7605Z" fill="#003087"/>
<path id="Vector_4" d="M37.7715 13.5041H36.38C36.2089 13.5041 36.1056 13.7056 36.0689 14.1085C35.7511 13.6204 35.1718 13.376 34.3294 13.376C33.4506 13.376 32.7029 13.7056 32.0867 14.3647C31.4702 15.0239 31.1621 15.7992 31.1621 16.6901C31.1621 17.4104 31.3726 17.984 31.7936 18.411C32.2148 18.8385 32.7792 19.0519 33.4874 19.0519C33.8413 19.0519 34.2013 18.9785 34.5675 18.8322C34.9337 18.6857 35.2202 18.4905 35.4281 18.2463C35.4281 18.2585 35.4157 18.3133 35.3915 18.4109C35.3669 18.5087 35.3548 18.5822 35.3548 18.6306C35.3548 18.8261 35.434 18.9235 35.5929 18.9235H36.8563C37.0879 18.9235 37.2223 18.8078 37.2588 18.5757L38.0096 13.797C38.0216 13.7237 38.0034 13.6567 37.9546 13.5956C37.9056 13.5347 37.8447 13.5041 37.7715 13.5041ZM35.3822 17.1111C35.071 17.4163 34.6956 17.5688 34.2562 17.5688C33.9021 17.5688 33.6155 17.4713 33.3957 17.2759C33.1759 17.081 33.066 16.8125 33.066 16.4703C33.066 16.019 33.2187 15.6373 33.5239 15.326C33.8286 15.0148 34.2074 14.8592 34.659 14.8592C35.0005 14.8592 35.2843 14.9599 35.5103 15.1612C35.7359 15.3626 35.8492 15.6403 35.8492 15.9944C35.8491 16.4338 35.6935 16.8061 35.3822 17.1111Z" fill="#009CDE"/>
<path id="Vector_5" d="M16.9725 13.5041H15.581C15.4099 13.5041 15.3063 13.7056 15.2697 14.1085C14.9401 13.6204 14.3603 13.376 13.5303 13.376C12.6515 13.376 11.9038 13.7056 11.2875 14.3647C10.671 15.0239 10.3629 15.7992 10.3629 16.6901C10.3629 17.4104 10.5735 17.984 10.9946 18.411C11.4157 18.8385 11.9801 19.0519 12.6881 19.0519C13.0297 19.0519 13.3839 18.9785 13.75 18.8322C14.1162 18.6857 14.4091 18.4905 14.6289 18.2463C14.5799 18.3926 14.5556 18.5208 14.5556 18.6306C14.5556 18.8261 14.6349 18.9235 14.7936 18.9235H16.0569C16.2886 18.9235 16.4231 18.8078 16.4597 18.5757L17.2103 13.797C17.2224 13.7237 17.2041 13.6567 17.1554 13.5956C17.1066 13.5347 17.0456 13.5041 16.9725 13.5041ZM14.5832 17.1202C14.2719 17.4196 13.8903 17.5688 13.4389 17.5688C13.0847 17.5688 12.801 17.4713 12.5875 17.2759C12.3738 17.081 12.2671 16.8125 12.2671 16.4703C12.2671 16.019 12.4196 15.6373 12.7249 15.326C13.0298 15.0148 13.4082 14.8592 13.86 14.8592C14.2016 14.8592 14.4854 14.9599 14.7114 15.1612C14.937 15.3626 15.0501 15.6403 15.0501 15.9944C15.05 16.446 14.8945 16.8215 14.5832 17.1202Z" fill="#003087"/>
<path id="Vector_6" d="M30.8966 11.2976C30.4266 10.9745 29.8134 10.8125 29.0566 10.8125H26.1454C25.9013 10.8125 25.7669 10.9285 25.7427 11.1603L24.5526 18.6302C24.5402 18.7035 24.5586 18.7706 24.6075 18.8316C24.6559 18.8927 24.7173 18.9231 24.7905 18.9231H26.2918C26.4382 18.9231 26.5358 18.8439 26.5848 18.6852L26.9143 16.5615C26.9265 16.4639 26.9692 16.3845 27.0426 16.3234C27.1158 16.2624 27.2072 16.2225 27.3172 16.2042C27.427 16.1861 27.5305 16.1769 27.6284 16.1769C27.726 16.1769 27.8419 16.1832 27.9762 16.1953C28.1104 16.2074 28.1962 16.2134 28.2325 16.2134C29.2824 16.2134 30.1061 15.9177 30.7043 15.3255C31.3024 14.7336 31.6014 13.9129 31.6014 12.8629C31.6015 12.1428 31.3664 11.621 30.8966 11.2974V11.2976ZM29.02 14.3094C28.7514 14.4925 28.3485 14.584 27.8116 14.584L27.2257 14.6023L27.5369 12.6432C27.5611 12.5091 27.6405 12.4418 27.7749 12.4418H28.1043C28.3729 12.4418 28.5864 12.4541 28.7454 12.4784C28.9037 12.503 29.0566 12.5791 29.203 12.7072C29.3496 12.8354 29.4227 13.0217 29.4227 13.2657C29.4227 13.7785 29.2883 14.1262 29.02 14.3094Z" fill="#009CDE"/>
</g>
</g>
<defs>
<clipPath id="clip0_388_1967">
<rect width="45" height="30" fill="white" transform="translate(0 0.5)"/>
</clipPath>
</defs>
</svg>
