<svg width="24" height="25" viewBox="0 0 24 25" fill="none" xmlns="http://www.w3.org/2000/svg">
<g id="sports_tennis">
<mask id="mask0_284_7525" style="mask-type:alpha" maskUnits="userSpaceOnUse" x="0" y="0" width="24" height="25">
<rect id="Bounding box" y="0.5" width="24" height="24" fill="#D9D9D9"/>
</mask>
<g mask="url(#mask0_284_7525)">
<path id="sports_tennis_2" d="M12.9998 15.05C11.3831 15.05 10.1998 15.1417 9.4498 15.325C8.6998 15.5083 8.05814 15.8667 7.5248 16.4L4.1248 19.8C3.94147 19.9833 3.7123 20.075 3.4373 20.075C3.1623 20.075 2.9248 19.9833 2.7248 19.8C2.5248 19.6 2.4248 19.3625 2.4248 19.0875C2.4248 18.8125 2.5248 18.575 2.7248 18.375L6.0998 15C6.61647 14.4833 6.97064 13.8375 7.1623 13.0625C7.35397 12.2875 7.4498 11.1 7.4498 9.5C7.4498 8.53333 7.66647 7.58333 8.0998 6.65C8.53314 5.71667 9.1498 4.85 9.9498 4.05C11.4665 2.53333 13.1415 1.675 14.9748 1.475C16.8081 1.275 18.3165 1.78333 19.4998 3C20.6998 4.2 21.1998 5.71667 20.9998 7.55C20.7998 9.38333 19.9498 11.05 18.4498 12.55C17.6498 13.35 16.7831 13.9667 15.8498 14.4C14.9165 14.8333 13.9665 15.05 12.9998 15.05ZM10.2998 12.15C11.0831 12.9167 12.1415 13.2 13.4748 13C14.8081 12.8 15.9998 12.175 17.0498 11.125C18.1165 10.0583 18.754 8.8625 18.9623 7.5375C19.1706 6.2125 18.8831 5.175 18.0998 4.425C17.2998 3.625 16.254 3.325 14.9623 3.525C13.6706 3.725 12.4831 4.35833 11.3998 5.425C10.3498 6.475 9.7123 7.6625 9.4873 8.9875C9.2623 10.3125 9.53314 11.3667 10.2998 12.15ZM17.9998 23.5C16.8998 23.5 15.9581 23.1083 15.1748 22.325C14.3915 21.5417 13.9998 20.6 13.9998 19.5C13.9998 18.4 14.3915 17.4583 15.1748 16.675C15.9581 15.8917 16.8998 15.5 17.9998 15.5C19.0998 15.5 20.0415 15.8917 20.8248 16.675C21.6081 17.4583 21.9998 18.4 21.9998 19.5C21.9998 20.6 21.6081 21.5417 20.8248 22.325C20.0415 23.1083 19.0998 23.5 17.9998 23.5Z" fill="white"/>
</g>
</g>
</svg>
