<svg width="44" height="31" viewBox="0 0 44 31" fill="none" xmlns="http://www.w3.org/2000/svg">
<g id="payment-methods/light/stripe" clip-path="url(#clip0_388_1976)">
<path id="Rectangle 1" d="M0 4.25C0 2.17893 1.64162 0.5 3.66667 0.5H40.3333C42.3584 0.5 44 2.17893 44 4.25V26.75C44 28.8211 42.3584 30.5 40.3333 30.5H3.66667C1.64162 30.5 0 28.8211 0 26.75V4.25Z" fill="#E6E4FF"/>
<path id="Vector" fill-rule="evenodd" clip-rule="evenodd" d="M36 15.7003C36 13.6495 35.0011 12.0314 33.0919 12.0314C31.1747 12.0314 30.0147 13.6495 30.0147 15.6842C30.0147 18.0955 31.3842 19.3131 33.3497 19.3131C34.3083 19.3131 35.0333 19.0968 35.5811 18.7924V17.1903C35.0333 17.4626 34.405 17.6308 33.6075 17.6308C32.8261 17.6308 32.1333 17.3585 32.0447 16.4132H35.9839C35.9839 16.3091 36 15.8925 36 15.7003ZM32.0206 14.9393C32.0206 14.034 32.5764 13.6575 33.0839 13.6575C33.5753 13.6575 34.0989 14.034 34.0989 14.9393H32.0206ZM26.9053 12.0314C26.1158 12.0314 25.6083 12.3999 25.3264 12.6562L25.2217 12.1595H23.4494V21.5L25.4633 21.0754L25.4714 18.8084C25.7614 19.0167 26.1883 19.3131 26.8972 19.3131C28.3392 19.3131 29.6522 18.1595 29.6522 15.6202C29.6442 13.2971 28.315 12.0314 26.9053 12.0314ZM26.4219 17.5507C25.9467 17.5507 25.6647 17.3825 25.4714 17.1742L25.4633 14.2023C25.6728 13.97 25.9628 13.8097 26.4219 13.8097C27.155 13.8097 27.6625 14.6268 27.6625 15.6762C27.6625 16.7497 27.1631 17.5507 26.4219 17.5507ZM20.6783 11.5587L22.7003 11.1262V9.5L20.6783 9.92457V11.5587ZM20.6783 12.1676H22.7003V19.1769H20.6783V12.1676ZM18.5114 12.7603L18.3825 12.1676H16.6425V19.1769H18.6564V14.4266C19.1317 13.8097 19.9372 13.9219 20.1869 14.01V12.1676C19.9292 12.0714 18.9867 11.8952 18.5114 12.7603ZM14.4836 10.4292L12.5181 10.8458L12.51 17.2623C12.51 18.4479 13.4042 19.3211 14.5964 19.3211C15.2569 19.3211 15.7403 19.2009 16.0061 19.0567V17.4306C15.7483 17.5347 14.4756 17.9032 14.4756 16.7176V13.8738H16.0061V12.1676H14.4756L14.4836 10.4292ZM9.03806 14.2023C9.03806 13.8899 9.29583 13.7697 9.72278 13.7697C10.335 13.7697 11.1083 13.9539 11.7206 14.2824V12.3999C11.0519 12.1355 10.3914 12.0314 9.72278 12.0314C8.0875 12.0314 7 12.8805 7 14.2984C7 16.5093 10.0611 16.1569 10.0611 17.1101C10.0611 17.4786 9.73889 17.5988 9.28778 17.5988C8.61917 17.5988 7.76528 17.3264 7.08861 16.9579V18.8645C7.83778 19.1849 8.595 19.3211 9.28778 19.3211C10.9633 19.3211 12.1153 18.496 12.1153 17.0621C12.1072 14.6749 9.03806 15.0995 9.03806 14.2023Z" fill="#635BFF"/>
</g>
<defs>
<clipPath id="clip0_388_1976">
<rect width="44" height="30" fill="white" transform="translate(0 0.5)"/>
</clipPath>
</defs>
</svg>
