<svg width="25" height="25" viewBox="0 0 25 25" fill="none" xmlns="http://www.w3.org/2000/svg">
<g id="sync_alt">
<mask id="mask0_284_9083" style="mask-type:alpha" maskUnits="userSpaceOnUse" x="0" y="0" width="25" height="25">
<rect id="Bounding box" x="0.554688" y="24.5" width="24" height="24" transform="rotate(-90 0.554688 24.5)" fill="#D9D9D9"/>
</mask>
<g mask="url(#mask0_284_9083)">
<path id="sync_alt_2" d="M17.5548 18.675L19.4548 16.775C19.6548 16.575 19.8881 16.4792 20.1548 16.4875C20.4215 16.4958 20.6548 16.6 20.8548 16.8C21.0381 17 21.134 17.2333 21.1423 17.5C21.1506 17.7667 21.0548 18 20.8548 18.2L17.2548 21.8C17.1548 21.9 17.0465 21.9708 16.9298 22.0125C16.8131 22.0542 16.6881 22.075 16.5548 22.075C16.4215 22.075 16.2965 22.0542 16.1798 22.0125C16.0631 21.9708 15.9548 21.9 15.8548 21.8L12.2548 18.2C12.0715 18.0167 11.9798 17.7875 11.9798 17.5125C11.9798 17.2375 12.0715 17 12.2548 16.8C12.4548 16.6 12.6923 16.5 12.9673 16.5C13.2423 16.5 13.4798 16.6 13.6798 16.8L15.5548 18.675L15.5548 4.5C15.5548 4.21666 15.6506 3.97916 15.8423 3.7875C16.034 3.59583 16.2715 3.5 16.5548 3.5C16.8381 3.5 17.0756 3.59583 17.2673 3.7875C17.459 3.97916 17.5548 4.21666 17.5548 4.5V18.675ZM9.5548 6.325V20.5C9.5548 20.7833 9.45896 21.0208 9.2673 21.2125C9.07563 21.4042 8.83813 21.5 8.5548 21.5C8.27146 21.5 8.03396 21.4042 7.8423 21.2125C7.65063 21.0208 7.5548 20.7833 7.5548 20.5L7.5548 6.325L5.6548 8.225C5.4548 8.425 5.22146 8.52083 4.9548 8.5125C4.68813 8.50416 4.4548 8.4 4.2548 8.2C4.07146 8 3.97563 7.76666 3.9673 7.5C3.95896 7.23333 4.0548 7 4.2548 6.8L7.8548 3.2C7.9548 3.1 8.06313 3.02916 8.1798 2.9875C8.29646 2.94583 8.42146 2.925 8.5548 2.925C8.68813 2.925 8.81313 2.94583 8.9298 2.9875C9.04646 3.02916 9.1548 3.1 9.2548 3.2L12.8548 6.8C13.0381 6.98333 13.1298 7.2125 13.1298 7.4875C13.1298 7.7625 13.0381 8 12.8548 8.2C12.6548 8.4 12.4173 8.5 12.1423 8.5C11.8673 8.5 11.6298 8.4 11.4298 8.2L9.5548 6.325Z" fill="#FF5FCC"/>
</g>
</g>
</svg>
