<svg width="45" height="30" viewBox="0 0 45 30" fill="none" xmlns="http://www.w3.org/2000/svg">
<g id="payment-methods/light/visa" clip-path="url(#clip0_388_1934)">
<path id="Rectangle 2" d="M0 3.75C0 1.67893 1.67893 0 3.75 0H41.25C43.3211 0 45 1.67893 45 3.75V26.25C45 28.3211 43.3211 30 41.25 30H3.75C1.67893 30 0 28.3211 0 26.25V3.75Z" fill="#FDFDFD"/>
<g id="visa">
<path id="Vector" d="M38.728 9.40796H36.3706C35.6578 9.40796 35.1096 9.62726 34.7806 10.34L30.285 20.5922H33.4649C33.4649 20.5922 34.0131 19.2216 34.1228 18.8926C34.4517 18.8926 37.5767 18.8926 38.0153 18.8926C38.1249 19.2764 38.3991 20.5373 38.3991 20.5373H41.2499L38.728 9.40796ZM34.9999 16.59C35.2741 15.9321 36.2061 13.465 36.2061 13.465C36.2061 13.5198 36.4802 12.8071 36.5899 12.4233L36.8092 13.4102C36.8092 13.4102 37.4122 16.0966 37.5219 16.6448H34.9999V16.59Z" fill="#3362AB"/>
<path id="Vector_2" d="M30.5043 16.9188C30.5043 19.2215 28.421 20.7566 25.1864 20.7566C23.8157 20.7566 22.5 20.4824 21.7872 20.1535L22.2258 17.6316L22.6096 17.796C23.5964 18.2346 24.2543 18.3991 25.4605 18.3991C26.3377 18.3991 27.2697 18.0702 27.2697 17.3026C27.2697 16.8092 26.8859 16.4803 25.6798 15.932C24.5285 15.3838 22.9934 14.5066 22.9934 12.9167C22.9934 10.7237 25.1315 9.24341 28.1469 9.24341C29.2982 9.24341 30.285 9.46271 30.8881 9.73683L30.4495 12.1491L30.2302 11.9298C29.682 11.7105 28.9692 11.4912 27.9276 11.4912C26.7763 11.546 26.228 12.0395 26.228 12.4781C26.228 12.9715 26.8859 13.3552 27.9276 13.8487C29.682 14.671 30.5043 15.6031 30.5043 16.9188Z" fill="#3362AB"/>
<path id="Vector_3" d="M3.75 9.51764L3.80482 9.29834H8.51974C9.17763 9.29834 9.67105 9.51764 9.83553 10.2304L10.8772 15.1646C9.83553 12.533 7.42325 10.3948 3.75 9.51764Z" fill="#F9B50B"/>
<path id="Vector_4" d="M17.511 9.40785L12.7413 20.5372H9.50661L6.76538 11.2171C8.73907 12.478 10.3838 14.4517 10.9869 15.8223L11.3158 16.9736L14.2763 9.35303H17.511V9.40785Z" fill="#3362AB"/>
<path id="Vector_5" d="M18.7719 9.35303H21.7872L19.8684 20.5372H16.853L18.7719 9.35303Z" fill="#3362AB"/>
</g>
</g>
<defs>
<clipPath id="clip0_388_1934">
<rect width="45" height="30" fill="white"/>
</clipPath>
</defs>
</svg>
